<svg id="svg32847" xmlns="http://www.w3.org/2000/svg" viewBox="0 0 179.92 160.01"><defs><style>.cls-1{fill:#fff;}.cls-1,.cls-2{stroke:#000;stroke-linecap:round;stroke-linejoin:round;stroke-width:5px;}.cls-2{fill:none;}</style></defs><g id="layer1"><g id="g5439"><g id="g3915-6-1-6-3-8-9-4"><path id="path3894-6-1-0-5-5-2-9" class="cls-1" d="M172.56,247.35c-3,8.31-10,7.33-17.16,4.15-10.14-4.5-23.64-25.05-25-34.75-1.22-8.9,2-15.87,8.88-16.77" transform="translate(-127.67 -96.31)"/><path id="path3112-2-8-6-8-2-9-8" class="cls-1" d="M138.94,127.1c-10.81,2.34-4.82,19.46,4.28,36.17,3.54,6.49-6.46,33-.3,49.86,4,11,19.06,31,29.66,33.79,18.16,4.73,34.11,1.63,50.06-6.85a81,81,0,0,0,15.76-11.26c14.23-13,61.36-29.22,64.37-33.35,8.35-11.48-7.9-18.76-16.83-15.78-4.33,1.45-37.34,8.31-32.94,4.63,10.8-9.05,24.9-18.64,38.72-26.93,20.69-12.42-5-34.53-24.24-22.71-9,5.54-17.21,9.1-37,21.93,7.38-11,17.4-27.47,25.78-37.08,13.83-15.84-14.53-31.1-31-11.37C214,121.58,196.38,148,172.25,165.66c.21-15.11-.72-45.64-33.31-38.56Z" transform="translate(-127.67 -96.31)"/><path id="path3882-6-1-33-9-9-7-9" d="M229.1,154.13c-9.76,12.72-11.85,21.48-13.39,25.36,5.9-8.14,7.17-10.37,14.12-18.58a22,22,0,0,1,5-4.24Z" transform="translate(-127.67 -96.31)"/><path id="path3884-6-1-2-9-6-6-0" d="M251.36,182.43c-7.21,6-14.44,15-17.7,22.22,3.88-3.35,10.5-9.18,16.31-14.39a9.5,9.5,0,0,1,6.32-2.5c-2-1.42-3.4-3.44-4.93-5.33Z" transform="translate(-127.67 -96.31)"/><path id="path3886-8-5-4-3-7-0-8" class="cls-2" d="M172.21,232.06c12.38-3.65,15-5.86,20.67-8.53" transform="translate(-127.67 -96.31)"/><path id="path3888-4-4-9-8-4-7-4" class="cls-2" d="M164.26,223.63c12.29-7.28,17.51-11.94,25.25-17.53" transform="translate(-127.67 -96.31)"/><path id="path3890-1-8-5-1-8-9-7" class="cls-2" d="M155.09,213.29c7.7-6.1,10.77-9.69,15.28-14" transform="translate(-127.67 -96.31)"/></g></g></g></svg>