<svg id="Layer_1" data-name="Layer 1" xmlns="http://www.w3.org/2000/svg" viewBox="0 0 192 192.02"><defs><style>.cls-1{fill:#fff;}</style></defs><path class="cls-1" d="M208.42,60c-5.86,0-14.4,1.74-23.48,9.27A96,96,0,1,0,144,252c51.74,0,96-39.79,96-96V96.77C239.81,71.44,223.5,60,208.42,60ZM216,156H154.46c-13.6,0-16.88-6.73-7.24-16.36l17.37-16.82a41.16,41.16,0,0,0-22.91-6.59,41.94,41.94,0,1,0,29.58,71.65,44,44,0,0,0,5.62-6.94A13.94,13.94,0,1,1,200.34,196h0A72.33,72.33,0,0,1,191,207.59a69.69,69.69,0,1,1-6.47-104.15l13.85-13.9c3.73-3.74,7.22-5.53,10.09-5.53C213,84,216,88.48,216,96.79V156Zm-85,.6c1.94,4.7,7.56,11.4,23.42,11.4h15.59a37.91,37.91,0,0,1-7.37,10.88c-4.84,4.84-13,8.94-21,8.94a29.49,29.49,0,0,1-29.81-29.19c0-.14,0-.27,0-.41,0-8,3.1-13.67,8.72-19.25s13.16-7,21.1-7l-3,1.48c-11.22,11.2-9.63,18.43-7.69,23.12Z" transform="translate(-48 -59.98)"/></svg>