<svg id="svg32847" xmlns="http://www.w3.org/2000/svg" viewBox="0 0 137.19 117.14"><defs><style>.cls-1{fill:#fff;}.cls-1,.cls-2{stroke:#000;stroke-linecap:round;stroke-linejoin:round;stroke-width:5px;}.cls-2{fill:none;}</style></defs><g id="layer1"><g id="g32290"><path id="path32292" class="cls-1" d="M261,187.17c8.14,3.34,12.06-2.54,14.48-10,3.42-10.56-2.89-34.32-9.2-41.79-5.84-6.84-13.06-9.14-18.44-4.57" transform="translate(-141.74 -109.88)"/><path id="path32294" class="cls-1" d="M193.13,113.13c18.91-4.11,51.69,9,62.15,29.13,5.29,10.4,10.34,34.9,5.3,44.65-8.55,16.68-21.56,26.5-38.51,32.72a80.66,80.66,0,0,1-18.9,4.22c-24,2.58-43-2.1-42.83-18.82-20.34-1.83-20.5-32.75-5.59-35.29-19.79-12.61-7.23-37.6,14.93-31.71C171.82,134.19,173.49,117.4,193.13,113.13Z" transform="translate(-141.74 -109.88)"/><path id="path32296" d="M155.86,172.16c15.85,2.35,21.82-.57,26-1.08-10-1.22-12.59-1.27-23.14-3.35a14.19,14.19,0,0,1-5.82-2.46l.1,7.61a9.53,9.53,0,0,1,2.85-.72Z" transform="translate(-141.74 -109.88)"/><path id="path32298" d="M158.77,207.31c9.4.37,21-.23,28.23-3.35-5.18-.13-18.52-1.36-26.31-1.4,0,0,0,0-1.92,4.75Z" transform="translate(-141.74 -109.88)"/><path id="path32300" class="cls-2" d="M249.84,176.7c-11,6.8-14.42,7.27-20.14,9.71" transform="translate(-141.74 -109.88)"/><path id="path32302" class="cls-2" d="M248.86,165.16c-13.65,4.3-20.63,5.09-29.91,7.12" transform="translate(-141.74 -109.88)"/><path id="path32304" class="cls-2" d="M247.28,151.43c-9.71,1.68-14.46,1.57-20.63,2" transform="translate(-141.74 -109.88)"/><path id="path32306" d="M168.06,135.45c21.15,1.45,28.18-6,37.85-11.8-9.69,8-12,17.06-36.45,16.87l-1.4-5.07Z" transform="translate(-141.74 -109.88)"/></g></g></svg>