<svg id="svg32847" xmlns="http://www.w3.org/2000/svg" viewBox="0 0 183.96 129.48"><defs><style>.cls-1{fill:#fff;}.cls-1,.cls-2{stroke:#000;stroke-linecap:round;stroke-linejoin:round;stroke-width:5px;}.cls-2{fill:none;}</style></defs><g id="layer1"><g id="imagebot_10" data-name="imagebot 10"><path id="imagebot_18" data-name="imagebot 18" class="cls-1" d="M140.3,165.62c-8.69,1.4-11.17-5.22-11.83-13-.92-11.06,10.62-32.76,18.47-38.6,7.24-5.34,14.8-5.93,19-.26" transform="translate(-125.92 -102.61)"/><path id="imagebot_17" data-name="imagebot 17" class="cls-1" d="M223.22,109c-17.48-8.3-52.39-3-67.15,14.23-7.51,8.93-18,31.64-15.31,42.28,4.53,18.19,15,30.71,30.06,40.63a81.32,81.32,0,0,0,17.44,8.4c20.62,6.73,38.69-3.89,46-8.58,13.13,5.13,28.31,12.89,42.23,21,20.82,12.19,27.89-21,8.27-32.17-9.19-5.25-16.25-10.72-37-22,13.18,1.21,32.46,2.08,44.91,4.81,20.54,4.52,20.3-27.68-4.92-32.67-17.18-3.4-30.92-3.26-47.32-6.42-1.21-4.23,1-21-17.17-29.58Z" transform="translate(-125.92 -102.61)"/><path id="imagebot_16" data-name="imagebot 16" d="M249.21,170.44c-15.84-2.45-24.52-.08-28.71.41,10,1.28,12.58,1.34,23.11,3.49a22.1,22.1,0,0,1,6.13,2.35Z" transform="translate(-125.92 -102.61)"/><path id="imagebot_15" data-name="imagebot 15" d="M235.09,203.55c-8.77-3.42-20.14-5.44-28-4.85,9.57,3.51,17.12,6.28,26.31,9.41,0,0,.75-2.31,1.67-4.56Z" transform="translate(-125.92 -102.61)"/><path id="imagebot_14" data-name="imagebot 14" class="cls-2" d="M153.54,158c9.17,9.13,12.39,10.36,17.4,14" transform="translate(-125.92 -102.61)"/><path id="imagebot_13" data-name="imagebot 13" class="cls-2" d="M157.12,147c12.31,7.29,18.93,9.64,27.5,13.73" transform="translate(-125.92 -102.61)"/><path id="imagebot_12" data-name="imagebot 12" class="cls-2" d="M161.78,133.93c9.07,3.85,13.73,4.82,19.63,6.64" transform="translate(-125.92 -102.61)"/><path id="imagebot_11" data-name="imagebot 11" d="M242.56,136.39c-20.93-3.4-26.07-12.28-34.18-20.1,7.63,10,7.78,19.34,31.66,24.72l2.52-4.62Z" transform="translate(-125.92 -102.61)"/></g></g></svg>